<?xml version="1.0" standalone="no"?><!DOCTYPE svg PUBLIC "-//W3C//DTD SVG 1.1//EN" "http://www.w3.org/Graphics/SVG/1.1/DTD/svg11.dtd"><svg width="100%" height="100%" viewBox="0 0 603 334" version="1.1" xmlns="http://www.w3.org/2000/svg" xmlns:xlink="http://www.w3.org/1999/xlink" xml:space="preserve" style="fill-rule:evenodd;clip-rule:evenodd;stroke-miterlimit:1.41421;"><g><g><clipPath id="_clip1"><rect x="0" y="0.357" width="602" height="333.643"/></clipPath><g clip-path="url(#_clip1)"><path d="M11.72,175.199l9.71,9.651c1.592,1.593 2.952,2.677 4.078,3.253c1.126,0.576 2.253,0.903 3.379,0.981l0,0.718l-12.526,0l0,-0.718c0.751,0 1.292,-0.126 1.622,-0.379c0.33,-0.252 0.495,-0.534 0.495,-0.845c0,-0.311 -0.061,-0.589 -0.185,-0.835c-0.123,-0.245 -0.527,-0.705 -1.213,-1.379l-9.089,-8.991l0,8.486c0,1.334 0.084,2.214 0.253,2.642c0.129,0.323 0.401,0.601 0.816,0.835c0.556,0.31 1.145,0.466 1.767,0.466l0.893,0l0,0.718l-11.225,0l0,-0.718l0.932,0c1.088,0 1.878,-0.317 2.369,-0.952c0.311,-0.414 0.467,-1.411 0.467,-2.991l0,-17.012c0,-1.333 -0.085,-2.219 -0.253,-2.66c-0.129,-0.31 -0.395,-0.583 -0.796,-0.815c-0.57,-0.312 -1.165,-0.467 -1.787,-0.467l-0.932,0l0,-0.718l11.225,0l0,0.718l-0.893,0c-0.609,0 -1.198,0.149 -1.767,0.447c-0.402,0.207 -0.68,0.518 -0.836,0.932c-0.155,0.415 -0.233,1.27 -0.233,2.563l0,8.06c0.259,-0.246 1.146,-1.068 2.661,-2.467c3.845,-3.52 6.169,-5.871 6.972,-7.049c0.349,-0.517 0.524,-0.97 0.524,-1.359c0,-0.298 -0.136,-0.56 -0.408,-0.787c-0.272,-0.226 -0.732,-0.34 -1.379,-0.34l-0.602,0l0,-0.718l9.671,0l0,0.718c-0.57,0.014 -1.087,0.091 -1.553,0.233c-0.466,0.143 -1.036,0.418 -1.709,0.826c-0.673,0.408 -1.502,1.065 -2.486,1.971c-0.285,0.259 -1.599,1.586 -3.942,3.981l-4.02,4.001Z" style="fill:#003d7e;fill-rule:nonzero;"/><path d="M32.791,177.587l8.234,0c-0.065,-1.139 -0.201,-1.942 -0.408,-2.408c-0.324,-0.724 -0.806,-1.295 -1.447,-1.709c-0.641,-0.414 -1.311,-0.621 -2.01,-0.621c-1.075,0 -2.036,0.417 -2.884,1.252c-0.848,0.835 -1.343,1.997 -1.485,3.486ZM32.791,178.713c-0.013,2.642 0.627,4.713 1.922,6.215c1.295,1.502 2.816,2.252 4.564,2.252c1.165,0 2.178,-0.32 3.039,-0.961c0.861,-0.64 1.583,-1.738 2.165,-3.292l0.603,0.389c-0.272,1.774 -1.062,3.389 -2.37,4.846c-1.308,1.456 -2.945,2.184 -4.913,2.184c-2.136,0 -3.965,-0.832 -5.486,-2.496c-1.522,-1.663 -2.282,-3.899 -2.282,-6.709c0,-3.042 0.78,-5.415 2.34,-7.117c1.56,-1.702 3.518,-2.554 5.875,-2.554c1.993,0 3.631,0.658 4.913,1.971c1.281,1.314 1.923,3.071 1.923,5.272l-12.293,0Z" style="fill:#003d7e;fill-rule:nonzero;"/><path d="M52.638,175.256c2.084,-2.51 4.071,-3.766 5.962,-3.766c0.97,0 1.805,0.242 2.505,0.727c0.699,0.486 1.255,1.286 1.669,2.399c0.285,0.777 0.428,1.968 0.428,3.573l0,7.594c0,1.126 0.091,1.889 0.272,2.291c0.142,0.324 0.372,0.576 0.689,0.758c0.318,0.181 0.903,0.271 1.758,0.271l0,0.699l-8.797,0l0,-0.699l0.369,0c0.828,0 1.407,-0.126 1.738,-0.379c0.33,-0.252 0.56,-0.624 0.689,-1.116c0.052,-0.194 0.078,-0.803 0.078,-1.825l0,-7.283c0,-1.619 -0.211,-2.793 -0.632,-3.525c-0.42,-0.731 -1.129,-1.097 -2.126,-1.097c-1.541,0 -3.075,0.841 -4.602,2.525l0,9.38c0,1.204 0.071,1.948 0.213,2.232c0.181,0.376 0.43,0.652 0.748,0.826c0.317,0.175 0.961,0.262 1.932,0.262l0,0.699l-8.797,0l0,-0.699l0.388,0c0.906,0 1.518,-0.229 1.836,-0.689c0.316,-0.459 0.475,-1.337 0.475,-2.631l0,-6.604c0,-2.135 -0.048,-3.436 -0.145,-3.903c-0.098,-0.466 -0.246,-0.783 -0.447,-0.951c-0.201,-0.168 -0.469,-0.253 -0.806,-0.253c-0.363,0 -0.796,0.098 -1.301,0.292l-0.292,-0.699l5.36,-2.175l0.836,0l0,3.766Z" style="fill:#003d7e;fill-rule:nonzero;"/><path d="M72.504,166.169l0,5.844l4.156,0l0,1.36l-4.156,0l0,11.536c0,1.152 0.165,1.928 0.496,2.33c0.33,0.401 0.753,0.602 1.272,0.602c0.427,0 0.841,-0.132 1.242,-0.398c0.402,-0.266 0.712,-0.657 0.932,-1.175l0.758,0c-0.453,1.269 -1.094,2.224 -1.923,2.864c-0.828,0.641 -1.683,0.961 -2.563,0.961c-0.596,0 -1.178,-0.165 -1.748,-0.495c-0.57,-0.33 -0.99,-0.803 -1.262,-1.417c-0.272,-0.615 -0.408,-1.563 -0.408,-2.845l0,-11.963l-2.816,0l0,-0.641c0.712,-0.284 1.44,-0.767 2.185,-1.446c0.744,-0.68 1.408,-1.487 1.99,-2.418c0.298,-0.492 0.712,-1.392 1.243,-2.699l0.602,0Z" style="fill:#003d7e;fill-rule:nonzero;"/><path d="M105.324,162.867l0,9.108l-0.719,0c-0.232,-1.748 -0.65,-3.139 -1.252,-4.176c-0.602,-1.035 -1.46,-1.857 -2.573,-2.465c-1.114,-0.609 -2.266,-0.914 -3.457,-0.914c-1.347,0 -2.46,0.412 -3.341,1.234c-0.88,0.822 -1.32,1.757 -1.32,2.806c0,0.802 0.278,1.534 0.835,2.194c0.802,0.972 2.712,2.266 5.729,3.885c2.46,1.32 4.14,2.333 5.04,3.039c0.9,0.706 1.592,1.537 2.078,2.495c0.485,0.958 0.728,1.962 0.728,3.01c0,1.994 -0.774,3.712 -2.321,5.156c-1.547,1.444 -3.538,2.165 -5.972,2.165c-0.764,0 -1.483,-0.058 -2.155,-0.175c-0.402,-0.064 -1.233,-0.301 -2.496,-0.708c-1.262,-0.408 -2.062,-0.612 -2.398,-0.612c-0.324,0 -0.58,0.097 -0.767,0.292c-0.188,0.193 -0.327,0.594 -0.418,1.203l-0.718,0l0,-9.03l0.718,0c0.337,1.89 0.79,3.305 1.359,4.244c0.57,0.938 1.441,1.718 2.613,2.34c1.171,0.621 2.456,0.931 3.855,0.931c1.618,0 2.897,-0.427 3.835,-1.281c0.939,-0.855 1.408,-1.864 1.408,-3.029c0,-0.648 -0.178,-1.302 -0.534,-1.962c-0.356,-0.66 -0.91,-1.275 -1.66,-1.845c-0.505,-0.389 -1.884,-1.214 -4.137,-2.476c-2.253,-1.262 -3.855,-2.269 -4.806,-3.02c-0.952,-0.75 -1.674,-1.579 -2.166,-2.485c-0.492,-0.907 -0.738,-1.904 -0.738,-2.992c0,-1.889 0.725,-3.517 2.175,-4.883c1.45,-1.366 3.295,-2.049 5.535,-2.049c1.398,0 2.881,0.344 4.447,1.029c0.726,0.324 1.237,0.485 1.535,0.485c0.336,0 0.611,-0.099 0.825,-0.3c0.214,-0.201 0.385,-0.606 0.514,-1.214l0.719,0Z" style="fill:#003d7e;fill-rule:nonzero;"/><path d="M115.617,166.169l0,5.844l4.156,0l0,1.36l-4.156,0l0,11.536c0,1.152 0.165,1.928 0.495,2.33c0.33,0.401 0.754,0.602 1.272,0.602c0.428,0 0.842,-0.132 1.243,-0.398c0.401,-0.266 0.712,-0.657 0.932,-1.175l0.758,0c-0.454,1.269 -1.094,2.224 -1.923,2.864c-0.829,0.641 -1.683,0.961 -2.563,0.961c-0.596,0 -1.179,-0.165 -1.748,-0.495c-0.57,-0.33 -0.991,-0.803 -1.262,-1.417c-0.272,-0.615 -0.408,-1.563 -0.408,-2.845l0,-11.963l-2.816,0l0,-0.641c0.712,-0.284 1.44,-0.767 2.185,-1.446c0.744,-0.68 1.407,-1.487 1.99,-2.418c0.298,-0.492 0.712,-1.392 1.243,-2.699l0.602,0Z" style="fill:#003d7e;fill-rule:nonzero;"/><path d="M131.58,185.976l0,-6.777c-1.955,0.777 -3.217,1.327 -3.787,1.651c-1.022,0.57 -1.754,1.165 -2.194,1.786c-0.44,0.621 -0.661,1.301 -0.661,2.039c0,0.933 0.279,1.706 0.835,2.321c0.557,0.615 1.198,0.923 1.923,0.923c0.983,0 2.279,-0.648 3.884,-1.943ZM131.58,187.239c-1.826,1.411 -2.972,2.226 -3.437,2.447c-0.699,0.323 -1.444,0.485 -2.233,0.485c-1.231,0 -2.243,-0.42 -3.04,-1.262c-0.796,-0.841 -1.194,-1.948 -1.194,-3.321c0,-0.867 0.194,-1.618 0.583,-2.252c0.53,-0.88 1.453,-1.709 2.767,-2.486c1.314,-0.777 3.498,-1.722 6.554,-2.836l0,-0.699c0,-1.773 -0.282,-2.99 -0.845,-3.65c-0.563,-0.661 -1.382,-0.991 -2.456,-0.991c-0.816,0 -1.464,0.22 -1.942,0.661c-0.492,0.44 -0.738,0.945 -0.738,1.514l0.039,1.126c0,0.596 -0.153,1.056 -0.457,1.379c-0.304,0.324 -0.702,0.485 -1.194,0.485c-0.479,0 -0.871,-0.168 -1.175,-0.504c-0.304,-0.336 -0.457,-0.796 -0.457,-1.379c0,-1.114 0.57,-2.136 1.709,-3.069c1.14,-0.931 2.739,-1.397 4.796,-1.397c1.58,0 2.875,0.264 3.885,0.796c0.764,0.401 1.327,1.029 1.69,1.884c0.233,0.556 0.349,1.696 0.349,3.417l0,6.04c0,1.696 0.032,2.735 0.097,3.117c0.065,0.382 0.172,0.637 0.321,0.766c0.149,0.13 0.32,0.195 0.514,0.195c0.207,0 0.389,-0.045 0.544,-0.136c0.272,-0.168 0.797,-0.641 1.573,-1.418l0,1.088c-1.45,1.942 -2.835,2.913 -4.156,2.913c-0.634,0 -1.139,-0.221 -1.514,-0.66c-0.376,-0.441 -0.57,-1.192 -0.583,-2.253Z" style="fill:#003d7e;fill-rule:nonzero;"/><path d="M144.319,166.169l0,5.844l4.156,0l0,1.36l-4.156,0l0,11.536c0,1.152 0.165,1.928 0.495,2.33c0.331,0.401 0.754,0.602 1.272,0.602c0.428,0 0.842,-0.132 1.243,-0.398c0.401,-0.266 0.712,-0.657 0.932,-1.175l0.758,0c-0.454,1.269 -1.094,2.224 -1.923,2.864c-0.828,0.641 -1.683,0.961 -2.563,0.961c-0.596,0 -1.179,-0.165 -1.748,-0.495c-0.57,-0.33 -0.991,-0.803 -1.262,-1.417c-0.272,-0.615 -0.408,-1.563 -0.408,-2.845l0,-11.963l-2.816,0l0,-0.641c0.712,-0.284 1.44,-0.767 2.185,-1.446c0.744,-0.68 1.408,-1.487 1.99,-2.418c0.298,-0.492 0.712,-1.392 1.243,-2.699l0.602,0Z" style="fill:#003d7e;fill-rule:nonzero;"/><path d="M153.194,177.587l8.235,0c-0.065,-1.139 -0.201,-1.942 -0.408,-2.408c-0.324,-0.724 -0.806,-1.295 -1.447,-1.709c-0.641,-0.414 -1.311,-0.621 -2.01,-0.621c-1.075,0 -2.036,0.417 -2.884,1.252c-0.848,0.835 -1.343,1.997 -1.486,3.486ZM153.194,178.713c-0.012,2.642 0.628,4.713 1.923,6.215c1.295,1.502 2.816,2.252 4.564,2.252c1.165,0 2.178,-0.32 3.039,-0.961c0.861,-0.64 1.583,-1.738 2.165,-3.292l0.602,0.389c-0.272,1.774 -1.061,3.389 -2.369,4.846c-1.308,1.456 -2.946,2.184 -4.913,2.184c-2.136,0 -3.965,-0.832 -5.486,-2.496c-1.522,-1.663 -2.282,-3.899 -2.282,-6.709c0,-3.042 0.78,-5.415 2.34,-7.117c1.56,-1.702 3.518,-2.554 5.874,-2.554c1.994,0 3.632,0.658 4.914,1.971c1.281,1.314 1.922,3.071 1.922,5.272l-12.293,0Z" style="fill:#003d7e;fill-rule:nonzero;"/><path d="M195.53,164.187l0,-0.718l9.322,0l0,0.718l-0.991,0c-1.036,0 -1.832,0.435 -2.388,1.302c-0.273,0.401 -0.409,1.333 -0.409,2.796l0,10.681c0,2.641 -0.261,4.69 -0.786,6.147c-0.524,1.456 -1.553,2.706 -3.088,3.748c-1.534,1.042 -3.622,1.562 -6.262,1.562c-2.875,0 -5.057,-0.498 -6.545,-1.495c-1.489,-0.997 -2.544,-2.337 -3.165,-4.019c-0.415,-1.153 -0.622,-3.315 -0.622,-6.487l0,-10.293c0,-1.618 -0.223,-2.679 -0.67,-3.184c-0.447,-0.505 -1.169,-0.758 -2.165,-0.758l-0.991,0l0,-0.718l11.38,0l0,0.718l-1.009,0c-1.088,0 -1.865,0.344 -2.33,1.029c-0.325,0.467 -0.487,1.438 -0.487,2.913l0,11.478c0,1.022 0.094,2.194 0.282,3.515c0.188,1.32 0.528,2.349 1.02,3.088c0.491,0.738 1.2,1.346 2.126,1.825c0.926,0.479 2.061,0.718 3.408,0.718c1.722,0 3.263,-0.375 4.622,-1.125c1.36,-0.751 2.288,-1.712 2.787,-2.884c0.498,-1.172 0.747,-3.157 0.747,-5.952l0,-10.663c0,-1.643 -0.18,-2.672 -0.543,-3.087c-0.504,-0.57 -1.256,-0.855 -2.252,-0.855l-0.991,0Z" style="fill:#003d7e;fill-rule:nonzero;"/><path d="M211.706,175.256c2.085,-2.51 4.071,-3.766 5.962,-3.766c0.972,0 1.807,0.242 2.506,0.727c0.698,0.486 1.255,1.286 1.67,2.399c0.284,0.777 0.427,1.968 0.427,3.573l0,7.594c0,1.126 0.09,1.889 0.272,2.291c0.142,0.324 0.372,0.576 0.689,0.758c0.317,0.181 0.903,0.271 1.757,0.271l0,0.699l-8.797,0l0,-0.699l0.37,0c0.828,0 1.407,-0.126 1.738,-0.379c0.33,-0.252 0.559,-0.624 0.688,-1.116c0.052,-0.194 0.078,-0.803 0.078,-1.825l0,-7.283c0,-1.619 -0.211,-2.793 -0.63,-3.525c-0.421,-0.731 -1.13,-1.097 -2.127,-1.097c-1.541,0 -3.076,0.841 -4.603,2.525l0,9.38c0,1.204 0.071,1.948 0.214,2.232c0.182,0.376 0.431,0.652 0.748,0.826c0.316,0.175 0.961,0.262 1.932,0.262l0,0.699l-8.797,0l0,-0.699l0.388,0c0.906,0 1.518,-0.229 1.835,-0.689c0.318,-0.459 0.476,-1.337 0.476,-2.631l0,-6.604c0,-2.135 -0.049,-3.436 -0.146,-3.903c-0.097,-0.466 -0.246,-0.783 -0.446,-0.951c-0.201,-0.168 -0.47,-0.253 -0.806,-0.253c-0.363,0 -0.796,0.098 -1.301,0.292l-0.291,-0.699l5.359,-2.175l0.835,0l0,3.766Z" style="fill:#003d7e;fill-rule:nonzero;"/><path d="M230.932,162.187c0.544,0 1.006,0.191 1.388,0.573c0.382,0.382 0.574,0.845 0.574,1.389c0,0.543 -0.192,1.01 -0.574,1.397c-0.382,0.389 -0.844,0.583 -1.388,0.583c-0.544,0 -1.01,-0.194 -1.399,-0.583c-0.387,-0.387 -0.582,-0.854 -0.582,-1.397c0,-0.544 0.191,-1.007 0.572,-1.389c0.382,-0.382 0.852,-0.573 1.409,-0.573ZM232.544,171.49l0,14.293c0,1.113 0.08,1.854 0.242,2.223c0.162,0.369 0.402,0.644 0.719,0.826c0.317,0.181 0.896,0.271 1.738,0.271l0,0.699l-8.641,0l0,-0.699c0.867,0 1.449,-0.084 1.747,-0.252c0.297,-0.169 0.534,-0.447 0.709,-0.836c0.174,-0.387 0.262,-1.132 0.262,-2.232l0,-6.856c0,-1.928 -0.058,-3.178 -0.174,-3.748c-0.091,-0.414 -0.234,-0.702 -0.428,-0.864c-0.195,-0.162 -0.46,-0.243 -0.796,-0.243c-0.363,0 -0.803,0.098 -1.32,0.292l-0.273,-0.699l5.36,-2.175l0.855,0Z" style="fill:#003d7e;fill-rule:nonzero;"/><path d="M236.544,172.013l8.37,0l0,0.719l-0.544,0c-0.505,0 -0.891,0.123 -1.155,0.369c-0.266,0.246 -0.399,0.576 -0.399,0.99c0,0.454 0.136,0.991 0.409,1.613l4.136,9.826l4.156,-10.195c0.297,-0.725 0.447,-1.276 0.447,-1.651c0,-0.181 -0.053,-0.33 -0.156,-0.447c-0.143,-0.194 -0.324,-0.326 -0.543,-0.398c-0.221,-0.071 -0.667,-0.107 -1.341,-0.107l0,-0.719l5.806,0l0,0.719c-0.672,0.052 -1.138,0.188 -1.397,0.408c-0.454,0.389 -0.861,1.036 -1.224,1.942l-6.311,15.264l-0.796,0l-6.351,-15.011c-0.285,-0.7 -0.556,-1.202 -0.815,-1.505c-0.26,-0.305 -0.59,-0.56 -0.991,-0.768c-0.22,-0.116 -0.654,-0.226 -1.301,-0.33l0,-0.719Z" style="fill:#003d7e;fill-rule:nonzero;"/><path d="M260.334,177.587l8.234,0c-0.065,-1.139 -0.201,-1.942 -0.408,-2.408c-0.323,-0.724 -0.806,-1.295 -1.446,-1.709c-0.642,-0.414 -1.312,-0.621 -2.011,-0.621c-1.074,0 -2.035,0.417 -2.884,1.252c-0.848,0.835 -1.343,1.997 -1.485,3.486ZM260.334,178.713c-0.013,2.642 0.628,4.713 1.923,6.215c1.294,1.502 2.815,2.252 4.563,2.252c1.165,0 2.178,-0.32 3.039,-0.961c0.862,-0.64 1.583,-1.738 2.165,-3.292l0.603,0.389c-0.272,1.774 -1.062,3.389 -2.369,4.846c-1.308,1.456 -2.945,2.184 -4.913,2.184c-2.137,0 -3.965,-0.832 -5.487,-2.496c-1.521,-1.663 -2.283,-3.899 -2.283,-6.709c0,-3.042 0.78,-5.415 2.342,-7.117c1.559,-1.702 3.518,-2.554 5.874,-2.554c1.994,0 3.632,0.658 4.913,1.971c1.282,1.314 1.923,3.071 1.923,5.272l-12.293,0Z" style="fill:#003d7e;fill-rule:nonzero;"/><path d="M280.2,171.49l0,4c1.49,-2.667 3.017,-4 4.584,-4c0.711,0 1.3,0.217 1.767,0.65c0.465,0.434 0.699,0.936 0.699,1.505c0,0.505 -0.169,0.932 -0.505,1.281c-0.336,0.35 -0.739,0.525 -1.203,0.525c-0.454,0 -0.963,-0.223 -1.526,-0.67c-0.562,-0.446 -0.98,-0.67 -1.252,-0.67c-0.234,0 -0.486,0.13 -0.758,0.389c-0.582,0.531 -1.185,1.404 -1.806,2.621l0,8.525c0,0.984 0.123,1.729 0.369,2.233c0.168,0.35 0.467,0.642 0.894,0.874c0.426,0.234 1.041,0.35 1.844,0.35l0,0.699l-9.108,0l0,-0.699c0.906,0 1.581,-0.142 2.02,-0.427c0.324,-0.207 0.551,-0.537 0.68,-0.991c0.064,-0.22 0.098,-0.848 0.098,-1.884l0,-6.893c0,-2.072 -0.043,-3.305 -0.127,-3.699c-0.084,-0.396 -0.241,-0.683 -0.467,-0.865c-0.227,-0.181 -0.508,-0.272 -0.844,-0.272c-0.402,0 -0.855,0.098 -1.36,0.292l-0.193,-0.699l5.379,-2.175l0.815,0Z" style="fill:#003d7e;fill-rule:nonzero;"/><path d="M299.737,171.49l0,6.058l-0.641,0c-0.492,-1.903 -1.123,-3.197 -1.894,-3.883c-0.77,-0.687 -1.75,-1.03 -2.942,-1.03c-0.906,0 -1.638,0.24 -2.195,0.719c-0.557,0.479 -0.834,1.01 -0.834,1.592c0,0.725 0.207,1.347 0.621,1.864c0.4,0.531 1.217,1.095 2.447,1.69l2.834,1.378c2.629,1.283 3.944,2.972 3.944,5.07c0,1.618 -0.612,2.922 -1.836,3.913c-1.223,0.99 -2.592,1.485 -4.108,1.485c-1.086,0 -2.33,-0.194 -3.728,-0.583c-0.426,-0.129 -0.776,-0.194 -1.049,-0.194c-0.297,0 -0.529,0.169 -0.699,0.505l-0.641,0l0,-6.35l0.641,0c0.363,1.813 1.056,3.178 2.078,4.098c1.023,0.919 2.17,1.379 3.437,1.379c0.895,0 1.621,-0.263 2.186,-0.787c0.562,-0.525 0.844,-1.156 0.844,-1.894c0,-0.892 -0.313,-1.643 -0.942,-2.253c-0.627,-0.607 -1.881,-1.378 -3.758,-2.31c-1.877,-0.932 -3.107,-1.774 -3.689,-2.525c-0.582,-0.738 -0.873,-1.67 -0.873,-2.797c0,-1.463 0.5,-2.685 1.504,-3.67c1.004,-0.983 2.301,-1.475 3.894,-1.475c0.7,0 1.547,0.148 2.543,0.446c0.661,0.194 1.102,0.291 1.321,0.291c0.207,0 0.369,-0.045 0.486,-0.136c0.117,-0.09 0.252,-0.291 0.408,-0.601l0.641,0Z" style="fill:#003d7e;fill-rule:nonzero;"/><path d="M308.243,162.187c0.543,0 1.006,0.191 1.388,0.573c0.381,0.382 0.573,0.845 0.573,1.389c0,0.543 -0.192,1.01 -0.573,1.397c-0.382,0.389 -0.845,0.583 -1.388,0.583c-0.545,0 -1.01,-0.194 -1.399,-0.583c-0.388,-0.387 -0.582,-0.854 -0.582,-1.397c0,-0.544 0.19,-1.007 0.572,-1.389c0.381,-0.382 0.852,-0.573 1.409,-0.573ZM309.854,171.49l0,14.293c0,1.113 0.08,1.854 0.242,2.223c0.162,0.369 0.403,0.644 0.719,0.826c0.318,0.181 0.896,0.271 1.738,0.271l0,0.699l-8.64,0l0,-0.699c0.867,0 1.449,-0.084 1.746,-0.252c0.299,-0.169 0.535,-0.447 0.709,-0.836c0.175,-0.387 0.263,-1.132 0.263,-2.232l0,-6.856c0,-1.928 -0.058,-3.178 -0.175,-3.748c-0.09,-0.414 -0.233,-0.702 -0.428,-0.864c-0.194,-0.162 -0.459,-0.243 -0.795,-0.243c-0.363,0 -0.803,0.098 -1.32,0.292l-0.274,-0.699l5.361,-2.175l0.854,0Z" style="fill:#003d7e;fill-rule:nonzero;"/><path d="M319.934,166.169l0,5.844l4.156,0l0,1.36l-4.156,0l0,11.536c0,1.152 0.164,1.928 0.494,2.33c0.332,0.401 0.756,0.602 1.274,0.602c0.425,0 0.841,-0.132 1.242,-0.398c0.4,-0.266 0.713,-0.657 0.931,-1.175l0.758,0c-0.453,1.269 -1.093,2.224 -1.922,2.864c-0.83,0.641 -1.683,0.961 -2.564,0.961c-0.596,0 -1.178,-0.165 -1.748,-0.495c-0.568,-0.33 -0.99,-0.803 -1.262,-1.417c-0.271,-0.615 -0.408,-1.563 -0.408,-2.845l0,-11.963l-2.814,0l0,-0.641c0.71,-0.284 1.439,-0.767 2.183,-1.446c0.744,-0.68 1.408,-1.487 1.99,-2.418c0.299,-0.492 0.713,-1.392 1.245,-2.699l0.601,0Z" style="fill:#003d7e;fill-rule:nonzero;"/><path d="M324.809,172.013l8.291,0l0,0.719l-0.408,0c-0.582,0 -1.02,0.126 -1.311,0.379c-0.291,0.253 -0.435,0.566 -0.435,0.941c0,0.506 0.213,1.204 0.64,2.098l4.331,8.972l3.98,-9.827c0.221,-0.53 0.33,-1.054 0.33,-1.573c0,-0.232 -0.045,-0.407 -0.135,-0.524c-0.103,-0.142 -0.265,-0.255 -0.486,-0.34c-0.221,-0.084 -0.609,-0.126 -1.164,-0.126l0,-0.719l5.787,0l0,0.719c-0.48,0.052 -0.85,0.155 -1.107,0.311c-0.26,0.155 -0.545,0.447 -0.856,0.874c-0.115,0.181 -0.336,0.679 -0.66,1.495l-7.242,17.75c-0.699,1.721 -1.615,3.023 -2.748,3.903c-1.135,0.881 -2.225,1.321 -3.274,1.321c-0.763,0 -1.39,-0.22 -1.883,-0.661c-0.492,-0.439 -0.738,-0.944 -0.738,-1.514c0,-0.543 0.178,-0.981 0.533,-1.311c0.358,-0.33 0.846,-0.495 1.467,-0.495c0.428,0 1.01,0.142 1.748,0.427c0.518,0.194 0.842,0.292 0.971,0.292c0.389,0 0.812,-0.202 1.271,-0.603c0.461,-0.401 0.924,-1.178 1.389,-2.33l1.264,-3.088l-6.391,-13.419c-0.193,-0.401 -0.504,-0.899 -0.931,-1.495c-0.325,-0.453 -0.59,-0.758 -0.797,-0.913c-0.297,-0.207 -0.776,-0.389 -1.436,-0.544l0,-0.719Z" style="fill:#003d7e;fill-rule:nonzero;"/><path d="M0,147.485l586.079,0" style="fill:none;stroke-width:0.5px;stroke:#231f20;"/><rect x="0.322" y="0.357" width="293.628" height="114.881" style="fill:#231f20;fill-rule:nonzero;"/><path d="M26.788,79.302l0,13.171c0,3.966 1.932,4.677 6.458,4.677c6.254,0 9.508,-3.56 9.508,-9.253c0,-6.713 -5.848,-8.595 -12.102,-8.595l-3.864,0ZM26.788,61.556l0,16.017c0,0 2.135,0.102 3.712,0.102c5.39,0 8.695,-2.593 8.695,-8.187c0,-4.932 -3.204,-8.085 -8.543,-8.085c-1.83,0 -3.864,0.153 -3.864,0.153ZM31.211,59.929c7.018,0 13.933,1.678 13.933,8.543c0,5.592 -5.492,8.542 -8.797,9.405c6.255,0.561 12.56,3.815 12.56,9.867c0,6.967 -6.458,10.984 -13.627,10.931l-19.78,0l0,-1.373l3.203,-0.202c1.831,-0.203 2.186,-0.458 2.237,-2.594c0.051,-3.001 0.051,-4.831 0.051,-7.778l0,-14.849c0,-2.95 0,-4.78 -0.051,-7.781c-0.051,-2.135 -0.406,-2.491 -2.237,-2.593l-3.203,-0.203l0,-1.373l15.711,0Z" style="fill:#fff;fill-rule:nonzero;"/><path d="M60.905,86.777c0,2.951 0,4.781 0.052,7.78c0.05,2.134 0.406,2.389 2.236,2.593l2.034,0.203l0,1.322l-13.882,0l0,-1.322l2.035,-0.203c1.83,-0.204 2.186,-0.459 2.238,-2.593c0.05,-2.999 0.05,-4.829 0.05,-7.78l0,-23.238c0,-2.441 -0.763,-3.051 -2.898,-3.203l-2.39,-0.152l0,-1.17c3.813,-0.407 7.678,-1.17 10.678,-1.933c0,0 -0.153,5.339 -0.153,11.188l0,18.508Z" style="fill:#fff;fill-rule:nonzero;"/><path d="M81.786,85.708c-4.118,0.307 -9.001,1.526 -9.001,5.238c0,2.644 2.39,4.984 4.933,4.984c1.88,0 3.254,-0.713 4.068,-1.474l0,-8.748ZM81.888,95.776c-2.186,1.729 -4.831,3.308 -7.374,3.308c-3.661,0 -6.559,-3.104 -6.559,-6.358c0,-5.848 7.322,-7.779 13.831,-8.492l0,-6.153c0,-2.847 -1.119,-4.22 -3.509,-4.22c-2.085,0 -2.898,1.068 -3.661,2.442c-1.068,1.982 -1.983,3.152 -3.457,3.152c-1.323,0 -2.086,-1.017 -2.086,-2.034c0,-2.593 6.204,-5.188 9.865,-5.188c5.694,0 8.289,1.781 8.289,6.205c0,2.033 -0.254,12.508 -0.254,14.288c0,1.78 0.915,2.696 2.44,2.696c1.271,0 2.492,-0.865 3.152,-1.272l0.509,1.118c-2.491,2.034 -4.678,3.763 -7.118,3.763c-2.187,0 -3.56,-1.881 -4.068,-3.255Z" style="fill:#fff;fill-rule:nonzero;"/><path d="M116.199,75.895c0,1.475 -1.017,2.441 -2.339,2.441c-1.526,0 -2.339,-1.27 -3.304,-2.39c-0.916,-1.068 -2.137,-2.085 -3.916,-2.085c-4.018,0 -7.119,4.068 -7.119,9.916c0,6.457 3.203,11.594 9.713,11.594c3.1,0 4.931,-1.425 6.608,-2.746l0.713,1.018c-3.254,3.406 -6.356,5.542 -10.221,5.542c-6.813,0 -11.695,-6.101 -11.695,-13.069c0,-7.728 4.779,-13.883 13.068,-13.883c4.424,0 8.492,1.882 8.492,3.662Z" style="fill:#fff;fill-rule:nonzero;"/><path d="M128.054,86.828c0,2.948 0,4.73 0.05,7.729c0.052,2.134 0.409,2.389 2.239,2.593l1.78,0.203l0,1.322l-13.628,0l0,-1.322l2.034,-0.203c1.831,-0.204 2.186,-0.459 2.238,-2.593c0.05,-2.999 0.05,-4.829 0.05,-7.78l0,-23.238c0,-2.441 -0.762,-3.051 -2.898,-3.203l-2.39,-0.152l0,-1.17c3.814,-0.407 7.679,-1.17 10.678,-1.933c0,0 -0.153,5.339 -0.153,11.188l0,16.779l9.509,-9.051c0.864,-0.864 0.56,-1.678 -0.61,-1.727l-2.339,-0.155l0,-1.373l11.543,0l0,1.322c-2.797,0.153 -3.967,0.355 -5.695,1.933l-8.085,7.424l10.934,11.796c1.474,1.579 2.287,1.984 3.913,2.085l0.612,0.051l0,1.322l-12.866,0l0,-1.322l1.78,-0.152c0.762,-0.051 0.813,-0.609 0.457,-1.069l-4.322,-5.083c-2.593,-3.103 -4.322,-4.679 -4.831,-5.188l0,0.967Z" style="fill:#fff;fill-rule:nonzero;"/><path d="M153.127,98.371c-0.255,0 -1.017,0.101 -2.035,0.457l-0.204,0l-0.558,-8.898l1.373,0c1.066,5.389 3.508,7.575 7.474,7.575c3.254,0 5.135,-1.777 5.135,-4.219c0,-2.289 -1.015,-3.255 -5.949,-5.289c-3.66,-1.526 -7.373,-3.305 -7.373,-8.034c0,-5.187 4.83,-7.73 9.102,-7.73c3.356,0 4.577,0.611 5.594,0.611c0.305,0 1.221,-0.355 1.778,-0.611l0.205,0l0.152,8.392l-1.476,0c-0.304,-4.067 -2.084,-6.712 -6.253,-6.712c-2.746,0 -4.83,1.525 -4.83,3.964c0,2.544 1.626,3.357 6.203,5.442c4.372,2.035 7.578,3.559 7.578,7.578c0,5.389 -4.68,8.288 -9.866,8.288c-3.204,0 -4.932,-0.814 -6.05,-0.814Z" style="fill:#fff;fill-rule:nonzero;"/><path d="M175.27,93.233c0,-4.169 0.204,-11.032 0.356,-17.845l-3.356,0l0,-0.815c3.254,-2.34 5.237,-4.677 7.932,-8.085l0.612,0l0,6.561l8.032,0l0,2.287l-8.032,0l0,16.679c0,2.947 1.422,4.117 3.661,4.117c1.422,0 2.643,-0.66 4.321,-1.931l0.61,1.016c-2.846,2.543 -5.136,3.968 -8.085,3.968c-3.609,0 -6.051,-2.543 -6.051,-5.952Z" style="fill:#fff;fill-rule:nonzero;"/><path d="M212.663,86.269c0,-7.12 -2.897,-12.306 -8.085,-12.306c-5.185,0 -7.476,5.034 -7.476,11.187c0,7.12 2.901,12.306 8.086,12.306c5.186,0 7.475,-5.033 7.475,-11.187ZM191.256,85.76c0,-8.238 6.915,-13.527 13.626,-13.527c6.713,0 13.627,5.188 13.627,13.425c0,8.239 -6.914,13.527 -13.627,13.527c-6.711,0 -13.626,-5.188 -13.626,-13.425Z" style="fill:#fff;fill-rule:nonzero;"/><path d="M242.364,81.692c0,-3.763 -1.781,-6 -5.187,-6c-3.203,0 -5.239,1.169 -6.305,2.034l0,9.051c0,2.951 0,4.781 0.052,7.78c0.05,2.134 0.405,2.389 2.235,2.593l2.034,0.203l0,1.322l-14.033,0l0,-1.322l2.033,-0.203c1.83,-0.204 2.188,-0.459 2.239,-2.593c0.047,-2.999 0.047,-4.829 0.047,-7.78l0,-7.17c0,-2.847 -0.608,-3.814 -2.947,-4.016l-1.728,-0.153l0,-1.272c3.61,-0.407 7.017,-1.219 10.068,-2.237l0,4.475c2.745,-2.289 5.999,-4.171 9.611,-4.171c4.576,0 7.271,2.849 7.271,8.086l0,6.458c0,2.951 0,4.781 0.05,7.78c0.05,2.134 0.407,2.389 2.238,2.593l2.034,0.203l0,1.322l-14.035,0l0,-1.322l2.033,-0.203c1.832,-0.204 2.188,-0.459 2.239,-2.593c0.051,-2.999 0.051,-4.829 0.051,-7.78l0,-5.085Z" style="fill:#fff;fill-rule:nonzero;"/><path d="M258.992,81.489l12.153,0c0,-3.864 -1.933,-7.628 -5.795,-7.628c-3.967,0 -5.952,3.764 -6.358,7.628ZM253.959,85.963c0,-6.864 4.27,-13.73 11.847,-13.73c6.661,0 10.527,4.374 10.933,10.934l-17.899,0c-0.203,6.864 3.001,12.152 9.915,12.152c3.813,0 6.61,-1.982 7.527,-2.846l0.66,1.068c-3.457,3.405 -7.068,5.644 -11.186,5.644c-7.222,0 -11.797,-6.101 -11.797,-13.222Z" style="fill:#fff;fill-rule:nonzero;"/><path d="M311.469,96.439c4.946,-0.176 6.182,-0.705 6.182,-2.532l0,-29.202c0,-1.826 -1.236,-2.356 -6.182,-2.532l0,-2.238l18.074,0l0,2.238c-4.945,0.176 -6.183,0.706 -6.183,2.532l0,31.322l6.127,0c7.771,0 9.596,-2.765 11.834,-10.775l2.058,0.118l-0.41,13.308l-31.5,0l0,-2.239Z" style="fill:#939598;fill-rule:nonzero;"/><path d="M364.157,92.083l0,-7.361c-8.36,1.826 -10.186,3.063 -10.186,6.772c0,2.297 1.237,4.181 4.297,4.181c2.356,0 4.592,-1.768 5.889,-3.592ZM348.204,92.849c0,-2.357 1.115,-4.77 3.588,-6.124c4.474,-2.473 11.48,-3.415 12.365,-4.121l0,-1.708c0,-5.594 -1.532,-7.419 -5.358,-7.419c-1.884,0 -3.002,0.53 -3.943,1.413c0.473,1.002 0.644,1.944 0.644,2.768c0,1.766 -1.117,3.238 -3.119,3.238c-1.945,0 -3.121,-1.53 -3.121,-3.238c0,-3.592 4.711,-6.301 10.364,-6.301c6.123,0 9.714,2.768 9.714,8.421l0,13.129c0,2.886 0.471,3.651 4.36,3.18l0.232,1.708c-2.117,0.765 -3.474,1.117 -5.238,1.117c-3.121,0 -3.826,-1.295 -4.182,-4.533l-0.353,0c-2.356,2.651 -5.24,4.652 -8.713,4.652c-4.945,0 -7.24,-2.884 -7.24,-6.182Z" style="fill:#939598;fill-rule:nonzero;"/><path d="M378.635,90.963l0,-14.659c0,-1.826 -0.941,-2.238 -4.357,-2.356l0,-2.178l9.539,-0.294l0,17.368c0,5.063 1.941,6.478 5.769,6.478c2.649,0 4.356,-0.883 6.123,-1.944l0,-17.074c0,-1.826 -1.119,-2.238 -4.355,-2.356l0,-2.178l9.537,-0.294l0,22.963c0,1.47 0.885,2 4.297,2.119l0,2.12l-9.361,0l0,-3.415c-2.944,2.12 -6.18,3.885 -10.069,3.885c-4.238,0 -7.123,-2.885 -7.123,-8.185Z" style="fill:#939598;fill-rule:nonzero;"/><path d="M407.833,96.499c3.416,-0.06 4.298,-0.648 4.298,-2.06l0,-17.605c0,-1.767 -0.882,-2.827 -4.298,-2.886l0,-2.178l9.361,-0.236l0,4.063c3.121,-2.179 6.654,-4.24 10.539,-4.24c4.064,0 6.771,2.885 6.771,8.185l0,14.897c0,1.412 0.825,2 4.297,2.06l0,2.179l-13.246,0l0,-2.179c3.002,-0.06 3.768,-0.648 3.768,-2.06l0,-12.777c0,-5.064 -1.942,-6.478 -5.414,-6.478c-2.651,0 -4.95,1.178 -6.596,2.356l0,16.899c0,1.412 0.764,2 3.709,2.06l0,2.179l-13.189,0l0,-2.179Z" style="fill:#939598;fill-rule:nonzero;"/><path d="M441.268,85.43c0,-8.184 5.772,-14.248 13.131,-14.248c6.123,0 9.541,3.355 9.541,6.476c0,2.06 -1.297,3.709 -3.182,3.709c-2.002,0 -3.238,-1.295 -3.238,-3.061c0,-1.59 1.059,-2.709 1.885,-3.18c-0.768,-0.824 -2.651,-1.767 -4.887,-1.767c-4.416,0 -7.773,3.298 -7.773,10.775c0,7.008 3.297,11.6 9.007,11.6c3.063,0 5.655,-1.767 7.657,-4.063l1.353,1.236c-2.472,3.592 -5.476,6.241 -10.951,6.241c-7.713,0 -12.543,-5.886 -12.543,-13.718Z" style="fill:#939598;fill-rule:nonzero;"/><path d="M466.702,96.499c3.414,-0.06 4.355,-0.648 4.355,-2.06l0,-31.501c0,-1.767 -1.119,-2.827 -4.533,-2.885l0,-2.178l9.715,-0.236l0,17.899c3.179,-2.179 6.595,-4.181 10.48,-4.181c4.004,0 6.711,2.885 6.711,8.185l0,14.897c0,1.412 0.885,2 4.299,2.06l0,2.179l-13.246,0l0,-2.179c2.943,-0.06 3.766,-0.648 3.766,-2.06l0,-12.777c0,-5.064 -1.944,-6.478 -5.415,-6.478c-2.65,0 -4.945,1.178 -6.595,2.356l0,16.899c0,1.412 0.765,2 3.711,2.06l0,2.179l-13.248,0l0,-2.179Z" style="fill:#939598;fill-rule:nonzero;"/><path d="M514.443,79.66c7.713,0 9.364,-3.768 9.364,-8.95c0,-4.416 -1.826,-8.243 -9.185,-8.243l-4.301,0l0,17.193l4.122,0ZM498.428,96.439c4.946,-0.176 6.182,-0.705 6.182,-2.532l0,-29.202c0,-1.826 -1.236,-2.356 -6.182,-2.532l0,-2.238l16.015,0c11.893,0 15.602,4.887 15.602,10.657c0,5.358 -3.882,11.54 -16.014,11.54l-3.71,0l0,11.775c0,1.944 1.297,2.356 6.536,2.532l0,2.239l-18.429,0l0,-2.239Z" style="fill:#939598;fill-rule:nonzero;"/><path d="M546.467,92.083l0,-7.361c-8.359,1.826 -10.187,3.063 -10.187,6.772c0,2.297 1.238,4.181 4.299,4.181c2.355,0 4.593,-1.768 5.888,-3.592ZM530.512,92.849c0,-2.357 1.119,-4.77 3.59,-6.124c4.475,-2.473 11.482,-3.415 12.365,-4.121l0,-1.708c0,-5.594 -1.531,-7.419 -5.359,-7.419c-1.883,0 -3,0.53 -3.945,1.413c0.472,1.002 0.65,1.944 0.65,2.768c0,1.766 -1.121,3.238 -3.121,3.238c-1.945,0 -3.121,-1.53 -3.121,-3.238c0,-3.592 4.709,-6.301 10.361,-6.301c6.125,0 9.717,2.768 9.717,8.421l0,13.129c0,2.886 0.471,3.651 4.355,3.18l0.237,1.708c-2.121,0.765 -3.475,1.117 -5.241,1.117c-3.121,0 -3.828,-1.295 -4.179,-4.533l-0.354,0c-2.355,2.651 -5.24,4.652 -8.715,4.652c-4.945,0 -7.24,-2.884 -7.24,-6.182Z" style="fill:#939598;fill-rule:nonzero;"/><path d="M577.668,93.378l0,-16.78c-1.412,-2.179 -3.121,-3.239 -5.945,-3.239c-4.181,0 -7.773,4.122 -7.773,11.953c0,6.123 2.945,10.656 8.242,10.656c2.121,0 3.887,-1.117 5.476,-2.59ZM558.239,85.606c0,-8.184 5.299,-14.424 13.189,-14.424c3.002,0 4.651,0.647 6.24,1.589l0,-9.833c0,-1.767 -1.119,-2.827 -4.533,-2.885l0,-2.178l9.715,-0.236l0,36.8c0,1.47 0.883,2 4.299,2.119l0,2.12l-9.363,0.234l0,-3.297c-2.002,2.061 -4.414,3.533 -7.889,3.533c-7.242,0 -11.658,-5.946 -11.658,-13.542Z" style="fill:#939598;fill-rule:nonzero;"/></g></g></g></svg>